<?xml version="1.0" encoding="utf-8"?>
<svg xmlns="http://www.w3.org/2000/svg" xmlns:xlink="http://www.w3.org/1999/xlink" version="1.1" id="Layer_1" x="0px" y="0px" width="141.7px" height="141.7px" viewBox="0 0 141.7 141.7" style="enable-background:new 0 0 141.7 141.7;" xml:space="preserve">
<style type="text/css">
	.st0{fill:#FFFFFF;}
	.st1{fill:#FFED00;}
	.st2{fill:#E3000B;}
</style>
<g>
	<path class="st0" d="M1,0.9v139.8h139.8l0-139.8H1z"/>
	<path class="st1" d="M1,0.9v139.8h139.8l0-139.8H1z M131.5,59.1c-0.2,4.4-1.6,9.8-2.8,13.4c-4.9,14.6-10.6,23.7-23.8,23.7   c-3.9,0-10.8-1-13.3-7.9l-0.6-1.6l-1.1,1.4c-4.1,5.2-10.3,8.2-16.8,8.3c-5,0-9.1-1.7-11.7-4.9l-0.7-0.9l-0.8,0.8   c-2.8,3.1-7.7,4.9-13.4,4.9c-4.5,0-8.3-1.5-10.9-4.3l-0.7-0.8l-0.7,0.7c-2.8,2.9-7.3,4.3-12.9,4.2c-6.8-0.2-10.9-4-11.1-10.1   c-0.2-9.5,9-29.6,12.9-35.7c2.5-4.1,5.9-6.1,10.4-6.1c3.1,0,5.2,0.6,6.5,2c1.1,1.2,1.4,2.2,1.5,4.7l0.1,3.2l1.7-2.7   c4.1-6.5,10.8-7.4,17.4-7.4c4.6,0,8.7,1.7,10.3,4.3l0.6,1l0.9-0.7c3.4-2.9,8.3-4.5,13.6-4.5c5.8,0,10.1,1.5,12.6,4.3   c0.6,0.7,1,1.1,1.5,2.2l0.7,1.4l1-1.2c3.7-4.4,8.8-6.6,15.1-6.6c5,0,8.8,1.3,11.2,3.9C131.2,51.2,131.7,55.8,131.5,59.1z"/>
	<path class="st2" d="M1,0.9v139.8h139.8l0-139.8H1z M135.4,64.4c-0.6,5.1-4.1,14.5-5.9,18.3c-4.9,10.1-11.5,17.9-24.1,17.9   c-6.7,0-12.3-2.2-15.5-6.3c-4.8,4.2-10.6,6.3-17,6.3c-4.9,0-9.2-1.4-12.5-4c-3.6,2.6-8.5,4-13.9,4c-4.5,0-8.6-1.2-11.8-3.5   c-3.5,2.3-8.2,3.5-13.6,3.4c-9-0.2-15.3-5.9-15.4-14.3c-0.2-11,9.1-31.3,13.5-38.3c3.3-5.4,8.3-8.3,14.4-8.3   c6.7,0,9.1,1.9,10.3,4.3c5.1-4.4,12-4.6,16.8-4.6c5.4,0,8.7,1.4,11.6,3.7c3.9-2.4,8.5-3.6,13.9-3.6c6.9,0,12,1.6,15.6,5.1   c4.2-3.5,9.4-5,15.2-5c7.7,0,12.8,2.8,15.8,6.9C137,52.3,136.2,58.2,135.4,64.4z"/>
	<path d="M0,0v141.7l141.7,0l0-141.7H0z M139.8,2l0,137.8H2L2,2H139.8z"/>
	<path d="M134.8,42.5v-1l0.7,0c0.5,0,0.7,0.2,0.7,0.5c0,0.2-0.2,0.5-0.6,0.5H134.8z M137.1,44.5l-0.4-0.7c-0.4-0.6-0.5-0.7-0.8-0.8   l0,0c0.6-0.1,1-0.5,1-1c0-0.6-0.4-1-1.1-1H134v3.5h0.7l0-1.4l0.1,0c0.3,0,0.4,0,0.6,0.2c0.1,0.1,0.4,0.4,0.5,0.7l0.3,0.6H137.1z    M135.4,40c1.5,0,2.7,1.2,2.7,2.7c0,1.5-1.2,2.7-2.7,2.7c-1.5,0-2.7-1.2-2.7-2.7C132.7,41.2,133.9,40,135.4,40z M135.4,39.4   c-1.9,0-3.4,1.5-3.4,3.4c0,1.9,1.5,3.4,3.4,3.4c1.9,0,3.4-1.5,3.4-3.4C138.8,40.9,137.3,39.4,135.4,39.4z"/>
	<path d="M116.9,43c-7.3,0-12.4,2.9-15.8,7c-0.6-1.2-1-1.7-1.6-2.4c-2.8-3.2-7.3-4.7-13.4-4.7c-5.9,0-10.8,1.8-14.3,4.8   c-1.8-2.9-6-4.8-11.1-4.8c-6.7,0-13.9,0.9-18.3,7.9c-0.1-2.5-0.3-3.8-1.7-5.3c-1.7-1.8-4.5-2.3-7.2-2.3c-4.9,0-8.6,2.1-11.3,6.5   C18.4,55.8,9,76.1,9.3,85.9c0.1,6.3,4.4,10.9,12,11.1c6,0.1,10.6-1.5,13.6-4.4c2.7,2.9,6.7,4.6,11.6,4.6c5.4,0,10.9-1.6,14.1-5.2   c2.7,3.3,7,5.3,12.5,5.2c7.2,0,13.5-3.4,17.6-8.7c2.3,6.1,8,8.6,14.2,8.6c13.7,0,19.7-9.4,24.7-24.3c1.1-3.4,2.6-9,2.9-13.7   C132.9,51.3,129.6,43,116.9,43z M25.7,80.5c7.1-1.2,8.9,1.3,8.7,3.7c-0.7,7.1-7.2,8.7-12.9,8.6c-4.1-0.1-7.8-2-7.9-6.7   c-0.2-8.3,8.3-27.6,12.3-34c1.8-3,4.1-4.5,7.7-4.5c3.4,0,4.2,1.7,4.2,3.8C37.7,56.9,28.6,73.8,25.7,80.5z M48.8,73.9   c-0.5,1.3-1.4,3.9-2.1,6.7c2.3-0.6,4.1-1,7.1-0.9c3.4,0.1,5.6,1.5,5.6,4.3c0,6.8-7.6,8.8-12.8,8.8c-5.8,0-10.8-3.3-10.8-9.6   c0-7.4,4-18.6,7.7-26C48.1,48.2,52.8,47,60.9,47c3.6,0,7.7,1.5,7.7,4.9c0,4.7-3.9,6.4-7.9,6.7c-1.7,0.1-4.2,0.2-5.8,0.1   c0,0-1.3,2-2.7,5.5c7.3-1,10.3,0.6,9.1,4.8C59.7,74.6,54.8,75,48.8,73.9z M84.4,56.3c-2,0-3.2,1.2-4.2,2.6   c-2.1,3-6.7,14.8-7.4,19.6c-0.5,3.3,1,4,2.5,4c2.5,0,5.3-2.7,6.3-7.1c0,0-4.8-0.1-3.5-4.4c1.3-4.1,3.7-5,7.8-5.2   c8-0.3,7.2,5.6,6.5,8.7C90.5,84.8,83.2,92.9,73,92.9c-7,0-11.4-3.9-11.4-11c0-5.1,2.5-13.1,4.5-17.8c4.3-10,8.7-16.9,20.1-16.9   c6.8,0,12.2,2.5,11.4,8.9c-0.6,4.7-2.9,7.5-7.2,7.8c-1.2,0.1-6.1,0-4.5-4.7C86.6,57.6,86.8,56.3,84.4,56.3z M127.5,64.7   c-1.2,6-3.9,13.1-6.9,18.4c-4.8,8.6-10.6,9.8-15.7,9.8c-5.1-0.1-10.8-1.9-10.9-9.8c0-5.6,2.4-13.6,4.5-18.8   c3.6-9.5,7.3-17.2,18.9-17C131,47.4,128.5,59.5,127.5,64.7z M117.8,58.8c-0.1,3.6-5.5,18.1-7.3,21.3c-0.8,1.4-1.7,2.5-3.4,2.5   c-1.4,0-2.1-1-2.1-2.2c-0.1-3.3,5.9-19.7,7.9-22.3c0.9-1.4,1.9-1.6,3.1-1.6C117.7,56.5,117.9,57.7,117.8,58.8z"/>
</g>
</svg>
